#!OML:ASF E:\emotionWalksFemale\Project 1\Capture day 1\Session 1\Female1.ASF
:FULLY-SPECIFIED
:DEGREES
160
root 8.60986 15.7084 8.99024 -158.544 1.55762 -177.053
lowerback 18.2485 1.77157 1.40185
upperback -2.94106 2.71599 0.0791281
thorax -13.5482 1.15016 -1.51032
lowerneck -11.3481 -2.40137 -7.61207
upperneck -14.7278 -4.12693 4.40076
head -2.63198 -2.60465 2.75624
rclavicle 1.77664e-014 7.60351e-015
rhumerus 61.9088 -22.6704 -31.5624
rradius 78.3146
rwrist -34.3049
rhand 0.716773 -38.1218
rfingers 7.12502
rthumb 26.2767 -66.3221
lclavicle 1.77664e-014 7.60351e-015
lhumerus 70.7521 18.6105 42.3508
lradius 54.4986
lwrist 18.9888
lhand -16.2394 -60.2951
lfingers 7.12502
lthumb 9.96923 -30.5512
rfemur -18.3719 -4.06765 27.3437
rtibia 35.366
rfoot -2.49864 -10.6647
rtoes -13.7814
lfemur -24.1015 3.32461 -19.7132
ltibia 43.5068
lfoot -8.86802 -1.36303
ltoes -21.9536
161
root 8.60523 15.934 8.71476 -159.429 1.69791 -177.104
lowerback 17.379 1.80132 1.45729
upperback -3.31387 2.73898 -0.0354086
thorax -13.4541 1.1501 -1.64975
lowerneck -10.8268 -2.49854 -7.14426
upperneck -13.1323 -4.04944 4.05923
head -2.18025 -2.46854 2.51673
rclavicle 6.37353e-015 2.67117e-016
rhumerus 61.7095 -23.8414 -30.3036
rradius 77.9259
rwrist -35.2142
rhand 1.75102 -37.4147
rfingers 7.12502
rthumb 27.2664 -65.4635
lclavicle 6.37353e-015 2.67117e-016
lhumerus 70.498 19.6638 40.6037
lradius 53.9827
lwrist 19.7772
lhand -16.0638 -59.9382
lfingers 7.12502
lthumb 10.1386 -30.2024
rfemur -14.2954 -3.82455 26.7259
rtibia 30.344
rfoot 2.69441 -9.77009
rtoes -13.7557
lfemur -20.4526 2.50973 -19.5336
ltibia 39.4866
lfoot -4.42405 -0.739187
ltoes -22.543
162
root 8.60242 16.1685 8.4329 -160.404 1.80365 -177.055
lowerback 16.4647 1.69257 1.50931
upperback -3.51352 2.59048 -0.0471416
thorax -13.1402 1.08379 -1.61889
lowerneck -10.9576 -2.4128 -6.97693
upperneck -11.1878 -3.66052 4.09791
head -1.52544 -2.18106 2.45638
rclavicle -1.63749e-014 -5.96354e-016
rhumerus 61.5348 -25.1811 -28.9843
rradius 77.3364
rwrist -35.7717
rhand 2.76908 -37.1258
rfingers 7.12502
rthumb 28.2399 -65.0177
lclavicle -1.63749e-014 -5.96354e-016
lhumerus 71.0618 20.1329 40.0797
lradius 52.5973
lwrist 18.923
lhand -16.3463 -60.1681
lfingers 7.12502
lthumb 9.86606 -30.4193
rfemur -10.1084 -2.4205 26.1722
rtibia 25.1816
rfoot 8.60596 -10.3929
rtoes -10.7507
lfemur -16.7782 0.9894 -19.2543
ltibia 35.5016
lfoot 0.280609 0.816102
ltoes -23.3717
163
root 8.59792 16.3984 8.14707 -161.402 1.75086 -177.014
lowerback 15.5247 1.45441 1.63451
upperback -3.59975 2.29272 0.0261343
thorax -12.6847 0.949932 -1.49656
lowerneck -11.5051 -2.35962 -7.2184
upperneck -9.09589 -3.28362 4.4967
head -0.75537 -1.90032 2.60026
rclavicle -2.75814e-014 2.78299e-015
rhumerus 61.6365 -26.488 -27.728
rradius 76.3063
rwrist -35.9016
rhand 3.64152 -37.4671
rfingers 7.12502
rthumb 29.0734 -65.2182
lclavicle -2.75814e-014 2.78299e-015
lhumerus 71.3797 20.9993 39.4505
lradius 51.4475
lwrist 18.4425
lhand -16.4986 -59.9978
lfingers 7.12502
lthumb 9.71916 -30.2421
rfemur -5.97665 0.462003 25.7218
rtibia 20.1464
rfoot 14.1111 -14.697
rtoes -2.13941
lfemur -13.2532 -1.83375 -18.9996
ltibia 31.8277
lfoot 4.75741 4.34713
ltoes -17.4052
164
root 8.59508 16.6245 7.8672 -162.317 1.625 -177.069
lowerback 14.7431 1.38137 1.78647
upperback -4.04249 2.20498 -0.133785
thorax -12.7154 0.890654 -1.71981
lowerneck -10.6823 -2.47357 -6.81215
upperneck -7.2473 -3.26577 4.59726
head -0.291361 -1.80293 2.5472
rclavicle -1.963e-014 3.8763e-015
rhumerus 61.8502 -27.1654 -26.6243
rradius 73.768
rwrist -35.0595
rhand 4.63744 -37.6518
rfingers 7.12502
rthumb 30.0241 -65.2347
lclavicle -1.963e-014 3.8763e-015
lhumerus 71.8182 21.4716 38.1276
lradius 50.3555
lwrist 19.0433
lhand -16.3876 -59.4097
lfingers 7.12502
lthumb 9.82621 -29.659
rfemur -2.08373 5.64056 25.5172
rtibia 15.6018
rfoot 15.2603 -25.5074
rtoes 21.2438
lfemur -10.2497 -6.48044 -18.9988
ltibia 28.8986
lfoot 6.79478 11.316
ltoes 6.75491
165
root 8.59245 16.8519 7.5977 -163.142 1.47871 -177.095
lowerback 13.9397 1.27921 1.89335
upperback -4.45657 2.08502 -0.20093
thorax -12.7057 0.827814 -1.80752
lowerneck -10.0392 -2.49405 -6.35847
upperneck -5.27981 -3.17162 4.33279
head 0.219042 -1.68323 2.37002
rclavicle -5.1684e-015 2.5842e-015
rhumerus 62.7858 -27.7017 -25.9517
rradius 70.4733
rwrist -33.5903
rhand 5.80611 -37.6641
rfingers 7.12502
rthumb 31.1385 -65.0391
lclavicle -5.1684e-015 2.5842e-015
lhumerus 72.6623 21.3335 38.3399
lradius 49.0566
lwrist 18.0839
lhand -16.6981 -59.5718
lfingers 7.12502
lthumb 9.52662 -29.8071
rfemur 1.44322 13.0824 25.9826
rtibia 12.0535
rfoot -2.50198 -37.1405
rtoes 50.4778
lfemur -7.83535 -13.1584 -19.3562
ltibia 26.9942
lfoot 1.41157 20.3115
ltoes 40.6576
166
root 8.58439 17.0864 7.33725 -163.772 1.27962 -176.985
lowerback 12.9413 1.13218 2.17415
upperback -4.64197 1.93347 -0.196893
thorax -12.3128 0.748418 -1.89804
lowerneck -9.69484 -2.34575 -6.22143
upperneck -3.86939 -2.88904 4.39248
head 0.59987 -1.49488 2.37377
rclavicle -1.79403e-014 -8.34896e-015
rhumerus 63.5407 -28.9482 -25.1077
rradius 67.467
rwrist -32.5825
rhand 6.5157 -38.0306
rfingers 7.12502
rthumb 31.8146 -65.2735
lclavicle -1.79403e-014 -8.34896e-015
lhumerus 72.4468 23.0867 36.2755
lradius 48.7068
lwrist 19.6502
lhand -17.1886 -59.2723
lfingers 7.12502
lthumb 9.05335 -29.4866
rfemur 4.14734 13.7827 26.6776
rtibia 9.8413
rfoot -16.5808 -37.029
rtoes 61.5241
lfemur -5.93585 -20.9514 -20.0779
ltibia 26.1033
lfoot -13.8482 24.2069
ltoes 61.5309
167
root 8.57258 17.3265 7.08912 -164.083 1.11521 -176.843
lowerback 11.8844 1.00853 2.49206
upperback -4.95249 1.82345 -0.197159
thorax -12.025 0.686461 -2.02847
lowerneck -8.78381 -2.11229 -6.17298
upperneck -3.06223 -2.54819 4.64129
head 0.690427 -1.29155 2.46629
rclavicle -5.51627e-015 -4.96962e-015
rhumerus 63.8286 -30.4338 -24.0768
rradius 64.8007
rwrist -32.2837
rhand 6.05368 -38.3463
rfingers 7.12502
rthumb 31.3745 -65.6757
lclavicle -5.51627e-015 -4.96962e-015
lhumerus 74.0674 23.5785 37.0571
lradius 47.2793
lwrist 18.5061
lhand -16.9234 -59.078
lfingers 7.12502
lthumb 9.30922 -29.3036
rfemur 5.68594 14.5476 27.2893
rtibia 9.06464
rfoot -25.2556 -36.4012
rtoes 63.9268
lfemur -4.66036 -26.4907 -20.9413
ltibia 25.9477
lfoot -27.8342 19.665
ltoes 67.4421
168
root 8.56241 17.5722 6.85391 -164.002 0.927521 -176.834
lowerback 10.9612 0.968601 2.7013
upperback -5.28006 1.81574 -0.162904
thorax -11.8357 0.68286 -2.0883
lowerneck -8.58505 -2.11781 -6.14406
upperneck -2.16573 -2.51873 4.44293
head 0.939229 -1.25811 2.39704
rclavicle -1.14301e-014 0
rhumerus 65.2808 -31.5245 -24.3641
rradius 61.6428
rwrist -30.5001
rhand 5.02269 -37.9441
rfingers 7.12502
rthumb 30.3916 -65.4598
lclavicle -1.14301e-014 0
lhumerus 74.7439 25.3012 36.7912
lradius 46.9879
lwrist 19.4501
lhand -16.0867 -58.2868
lfingers 7.12502
lthumb 10.1165 -28.55
rfemur 6.09651 15.3032 27.6571
rtibia 9.302
rfoot -34.0184 -35.0402
rtoes 64.9775
lfemur -4.39637 -27.0709 -21.3338
ltibia 26.1171
lfoot -32.0845 21.0695
ltoes 66.7373
169
root 8.55321 17.8191 6.61678 -163.652 0.733583 -177.018
lowerback 9.86204 0.914557 2.73285
upperback -5.58292 1.74741 -0.2122
thorax -11.5155 0.665235 -2.12187
lowerneck -8.33799 -2.14297 -5.86781
upperneck -1.57099 -2.55429 4.05108
head 1.07657 -1.2706 2.21613
rclavicle 1.70706e-014 -7.95139e-016
rhumerus 67.1357 -32.6589 -25.6735
rradius 58.7182
rwrist -27.8007
rhand 4.67044 -36.9783
rfingers 7.12502
rthumb 30.0556 -64.5555
lclavicle 1.70706e-014 -7.95139e-016
lhumerus 79.3829 25.0665 40.4929
lradius 44.0504
lwrist 16.5946
lhand -16.0341 -58.3918
lfingers 7.12502
lthumb 10.1672 -28.6575
rfemur 5.90672 16.0477 27.625
rtibia 9.65725
rfoot -40.5165 -33.7178
rtoes 66.025
lfemur -4.81211 -24.6305 -21.41
ltibia 26.3113
lfoot -34.7139 20.6288
ltoes 66.1948
